PathFileType	4	(X/Y/Z)	TVC_39_BWA_03_walk_RCNL2025.trc
DataRate	CameraRate	NumFrames	NumMarkers	Units	OrigDataRate	OrigDataStartFrame	OrigNumFrames
100	100	9	27	mm	100	736	1176
Frame#	Time	R_Shoulder			L_Shoulder			C7			J_Notch			R_Elbow			L_Elbow			R_Wrist			L_Wrist			R_Asis			L_Asis			R_Psis			L_Psis			Sacral			Thoracic			Sternum			R_Thigh_Lateral			R_Knee_Lateral			R_Shank_Lateral			R_Ankle_Lateral			R_Heel			R_Toe			L_Thigh_Lateral			L_Knee_Lateral			L_Shank_Lateral			L_Ankle_Lateral			L_Heel			L_Toe		
		X1	Y1	Z1	X2	Y2	Z2	X3	Y3	Z3	X4	Y4	Z4	X5	Y5	Z5	X6	Y6	Z6	X7	Y7	Z7	X8	Y8	Z8	X9	Y9	Z9	X10	Y10	Z10	X11	Y11	Z11	X12	Y12	Z12	X13	Y13	Z13	X14	Y14	Z14	X15	Y15	Z15	X16	Y16	Z16	X17	Y17	Z17	X18	Y18	Z18	X19	Y19	Z19	X20	Y20	Z20	X21	Y21	Z21	X22	Y22	Z22	X23	Y23	Z23	X24	Y24	Z24	X25	Y25	Z25	X26	Y26	Z26	X27	Y27	Z27
736	7.35000000	684.812256	1466.186646	91.392693	726.428528	1478.078491	-272.629272	669.286560	1532.512817	-98.407402	821.405823	1413.928467	-86.317604	709.523804	1150.780029	216.008957	672.754517	1167.336792	-394.945953	847.601044	936.223480	189.378662	764.585114	921.815948	-365.632568	776.810425	936.052063	51.250874	806.963257	929.645569	-241.773087	586.651794	953.466919	-58.728870	597.620667	943.694336	-165.904373	592.136230	948.580627	-112.316622	593.726624	1200.991577	-116.889832	870.401794	1254.840088	-72.983963	740.530701	731.882080	124.251549	741.137024	465.013794	51.404785	649.033508	292.581512	102.828827	603.856689	76.565735	0.126127	564.137451	63.251034	-55.108963	743.371033	44.921864	21.044455	791.537354	679.166016	-327.475922	877.474609	473.157684	-249.995926	837.340332	337.095306	-308.811584	802.058838	73.930069	-226.254791	754.586243	56.970436	-170.285645	939.463379	45.070065	-232.271606
737	7.36000000	686.403076	1466.976929	89.703094	728.236023	1478.480225	-274.334869	670.813354	1533.019409	-100.185516	823.116760	1414.682129	-87.883736	711.701111	1151.657593	214.519897	675.044678	1167.634766	-396.460510	850.261230	937.453156	187.592720	767.178772	922.196960	-367.354218	778.696838	936.081360	49.937408	809.521973	930.456055	-243.049194	588.802551	953.943970	-60.368687	600.002075	944.574341	-167.545715	594.402313	949.259155	-113.957201	595.594238	1201.441040	-118.225563	872.356689	1255.690918	-74.292488	741.424988	732.019226	122.831108	741.494751	465.167877	50.279385	649.087219	293.049652	102.123299	603.883667	76.723473	-0.055327	564.195679	63.319801	-55.245007	743.348999	44.943443	20.980438	792.883118	679.625854	-328.913574	877.302490	473.106842	-251.073425	837.008179	336.872803	-309.644073	801.830261	73.787926	-226.468918	754.501892	56.869633	-170.470428	939.271423	45.154373	-232.663498
738	7.37000000	688.005127	1467.720093	88.022873	730.085266	1478.881348	-276.023560	672.364624	1533.501099	-101.945190	824.838928	1415.391602	-89.437439	713.923767	1152.499634	213.044861	677.357849	1167.962646	-398.022308	852.968811	938.649506	185.863541	769.780945	922.603455	-369.095505	780.559448	936.092773	48.611347	812.032166	931.231140	-244.336609	590.921814	954.398560	-62.005985	602.340393	945.419861	-169.184982	596.631104	949.909210	-115.595484	597.431763	1201.886230	-119.573334	874.302307	1256.490845	-75.606453	742.390625	732.134827	121.395020	741.901489	465.302185	49.175026	649.187866	293.503571	101.437164	603.926392	76.886017	-0.231047	564.261353	63.401058	-55.380383	743.336975	44.966484	20.916698	794.462097	680.110596	-330.303619	877.174438	473.049194	-252.039825	836.768250	336.664368	-310.384216	801.635864	73.654427	-226.660355	754.417969	56.780350	-170.642258	939.115723	45.233692	-232.916458
739	7.38000000	689.614685	1468.415527	86.351028	731.973206	1479.276855	-277.697113	673.938904	1533.955322	-103.688286	826.570496	1416.054565	-90.979248	716.181702	1153.303955	211.582870	679.693542	1168.314331	-399.632233	855.717194	939.811920	184.191711	772.388824	923.029083	-370.855637	782.397827	936.086792	47.277405	814.493835	931.967041	-245.631287	593.009033	954.826538	-63.636822	604.635437	946.225098	-170.818253	598.822235	950.525818	-117.227537	599.242554	1202.322144	-120.933670	876.237122	1257.237671	-76.925636	743.438538	732.226013	119.946709	742.364685	465.414520	48.094620	649.341858	293.940063	100.771225	603.986633	77.054352	-0.400971	564.335754	63.495926	-55.515736	743.336548	44.991123	20.853218	796.260986	680.612915	-331.639557	877.102417	472.985352	-252.891373	836.628967	336.467926	-311.035065	801.484375	73.530624	-226.830154	754.337219	56.706493	-170.800049	939.003174	45.304859	-233.030746
740	7.39000000	691.228760	1469.062988	84.686691	733.895996	1479.661743	-279.357086	675.534485	1534.380615	-105.416626	828.309937	1416.669312	-92.509819	718.464722	1154.069580	210.132874	682.050964	1168.683105	-401.290100	858.499451	940.939941	182.576836	775.000000	923.467590	-372.634323	784.211548	936.063843	45.940109	816.907349	932.660645	-246.929520	595.063843	955.224670	-65.257736	606.887207	946.985474	-172.442032	600.975525	951.105072	-118.849884	601.030273	1202.744385	-122.306717	878.159790	1257.929810	-78.249763	744.574097	732.290894	118.491615	742.888733	465.503815	47.040291	649.552856	294.357239	100.125381	604.064941	77.229202	-0.565161	564.419739	63.604790	-55.651718	743.348328	45.017395	20.789988	798.253662	681.123840	-332.917084	877.094788	472.915955	-253.629730	836.596008	336.280334	-311.604279	801.382202	73.417076	-226.981125	754.261169	56.650860	-170.944382	938.938477	45.364574	-233.012848
741	7.40000000	692.844910	1469.663086	83.029106	735.849609	1480.031250	-281.004974	677.149658	1534.775635	-107.131905	830.055481	1417.234985	-94.029900	720.763062	1154.795410	208.693802	684.428955	1169.062500	-402.994537	861.308014	942.033234	181.017632	777.612213	923.912689	-374.431656	786.000244	936.024658	44.603718	819.272827	933.309326	-248.227905	597.086121	955.590393	-66.865707	609.095947	947.697327	-174.053238	603.091034	951.643860	-120.459473	602.798218	1203.148804	-123.692223	880.069153	1258.566284	-79.578476	745.799194	732.327942	117.036095	743.474487	465.570190	46.013405	649.821350	294.754669	99.498787	604.161011	77.410866	-0.723818	564.513672	63.727337	-55.788834	743.372375	45.045242	20.727051	800.404358	681.633240	-334.134369	877.156494	472.841431	-254.261139	836.672485	336.097961	-312.102661	801.332947	73.313843	-227.117371	754.190308	56.614864	-171.077393	938.923767	45.409763	-232.874222
742	7.41000000	694.461365	1470.216919	81.377686	737.829712	1480.381104	-282.642090	678.782837	1535.139282	-108.835686	831.805847	1417.750977	-95.540291	723.067505	1155.481201	207.264648	686.825806	1169.446411	-404.743164	864.135101	943.091675	179.511925	780.223419	924.358398	-376.248062	787.763733	935.970032	43.272099	821.590759	933.911255	-249.523453	599.075867	955.922180	-68.458107	611.262085	948.358154	-175.649155	605.168976	952.140167	-122.053631	604.549744	1203.531860	-125.089584	881.964417	1259.146729	-80.911354	747.112732	732.335815	115.586533	744.119568	465.614868	45.014660	650.144592	295.133057	98.889977	604.273438	77.599052	-0.877287	564.617310	63.862694	-55.927387	743.408203	45.074497	20.664537	802.670410	682.130127	-335.291718	877.289368	472.762146	-254.795486	836.857971	335.917053	-312.542664	801.337280	73.220512	-227.243530	754.124023	56.598454	-171.202316	938.958740	45.438019	-232.630112
743	7.42000000	696.076965	1470.725952	79.731964	739.831604	1480.707642	-284.269562	680.432312	1535.471436	-110.529366	833.559570	1418.217407	-97.041855	725.369629	1156.127319	205.844528	689.239319	1169.828735	-406.532440	866.972626	944.115051	178.056755	782.831696	924.798950	-378.084198	789.501953	935.900879	41.948662	823.861389	934.465271	-250.813583	601.033508	956.219177	-70.032646	613.386292	948.966309	-177.227386	607.209900	952.592743	-123.630016	606.287903	1203.890869	-126.497856	883.844849	1259.671631	-82.247894	748.509766	732.313232	114.148842	744.818298	465.639984	44.044182	650.516418	295.493896	98.296890	604.399719	77.792847	-1.026057	564.730042	64.009529	-56.067444	743.454651	45.104912	20.602678	805.005676	682.602966	-336.391174	877.492676	472.678192	-255.245270	837.148560	335.734436	-312.936859	801.392456	73.136230	-227.364166	754.061157	56.600128	-171.322968	939.040344	45.447948	-232.298340
744	7.43000000	697.691284	1471.192383	78.091667	741.850525	1481.007690	-285.888367	682.096497	1535.771851	-112.214134	835.315491	1418.634888	-98.535431	727.661926	1156.734253	204.432678	691.666687	1170.203857	-408.357941	869.812408	945.103180	176.648438	785.435242	925.228943	-379.940796	791.215332	935.818115	40.636269	826.085144	934.970825	-252.096191	602.959534	956.481384	-71.587349	615.469055	949.520996	-178.785812	609.214294	953.001190	-125.186581	608.015442	1204.223511	-127.915825	885.710022	1260.141724	-83.587563	749.980774	732.259338	112.728203	745.562500	465.648468	43.101601	650.927551	295.839203	97.716988	604.536316	77.990692	-1.170732	564.850708	64.166199	-56.208820	743.510315	45.136127	20.541798	807.363342	683.040405	-337.436401	877.763611	472.589447	-255.624557	837.536743	335.547577	-313.296936	801.493042	73.059807	-227.483109	754.000183	56.617161	-171.443054	939.163452	45.439381	-231.898285
